<?xml version="1.0" encoding="utf-8"?>
<!-- Generator: Adobe Illustrator 16.2.0, SVG Export Plug-In . SVG Version: 6.00 Build 0)  -->
<!DOCTYPE svg PUBLIC "-//W3C//DTD SVG 1.0//EN" "http://www.w3.org/TR/2001/REC-SVG-20010904/DTD/svg10.dtd">
<svg version="1.0" id="Layer_1" xmlns="http://www.w3.org/2000/svg" xmlns:xlink="http://www.w3.org/1999/xlink" x="0px" y="0px"
	 width="96px" height="96px" viewBox="0 0 96 96" enable-background="new 0 0 96 96" xml:space="preserve">
<path fill="#FFFFFF" d="M33.956,64.192c-0.222,0.276-0.499,0.575-0.827,0.889c-2.876,2.745-9.68,6.556-17.898,5.152
	c6.22,4.08,13.473,6.44,21.149,6.44c21.813,0,38.753-19.037,37.842-42.524c0-0.026-0.009-0.056-0.009-0.076
	c0-0.066,0.009-0.13,0.009-0.186c0-0.074-0.009-0.142-0.009-0.22c1.984-1.456,4.648-4.041,6.557-7.449
	c-1.104,0.656-4.416,1.964-7.504,2.292c1.979-1.15,4.912-4.917,5.636-7.909c-1.904,1.308-6.276,3.216-8.437,3.216
	c0,0,0,0.006,0.004,0.01c-2.464-2.774-5.928-4.502-9.776-4.502c-7.464,0-13.521,6.518-13.521,14.561
	c0,1.116,0.124,2.202,0.348,3.244c0,0-0.004-0.001-0.004,0C47.516,52.336,33.956,64.192,33.956,64.192z"/>
</svg>
