<?xml version="1.0" encoding="utf-8"?>
<!-- Generator: Adobe Illustrator 16.2.0, SVG Export Plug-In . SVG Version: 6.00 Build 0)  -->
<!DOCTYPE svg PUBLIC "-//W3C//DTD SVG 1.0//EN" "http://www.w3.org/TR/2001/REC-SVG-20010904/DTD/svg10.dtd">
<svg version="1.0" xmlns="http://www.w3.org/2000/svg" xmlns:xlink="http://www.w3.org/1999/xlink" x="0px" y="0px" width="105px"
	 height="144px" viewBox="0 0 105 144" enable-background="new 0 0 105 144" xml:space="preserve">
<g id="circle_1_" display="none">
	<g id="icon" display="inline">
		<g>
			<g id="land_8_">
				<g>
					<path fill="#653614" d="M-51.159,61.926c0,0-4.563,9.899,1.457,14.206c5.908,3.812,93.665,60.445,93.665,60.445
						c2.915,1.881,7.696,1.899,10.625,0.039l97.949-62.146c6.667-4.98,1.479-13.267,1.479-13.267s1.976,2.928-1.687,5.236
						l-97.793,60.463c-2.949,1.824-7.753,1.787-10.674-0.083l-93.553-59.871l-1.862-1.668
						C-52.282,62.785-51.159,61.926-51.159,61.926z"/>
					<g>
						<path fill="#EFEFEF" d="M54.538,126.9c-2.951,1.826-7.756,1.789-10.678-0.081l-93.546-59.87
							c-2.922-1.87-2.82-4.757,0.228-6.416L45.208,9.016c3.047-1.659,8.049-1.686,11.114-0.06l96.104,50.98
							c3.065,1.626,3.159,4.45,0.209,6.275L54.538,126.9z"/>
					</g>
				</g>
				<g opacity="0.29">
					<linearGradient id="SVGID_1_" gradientUnits="userSpaceOnUse" x1="-17.4688" y1="119.458" x2="119.9348" y2="15.917">
						<stop  offset="0" style="stop-color:#F7BD16"/>
						<stop  offset="1" style="stop-color:#000000;stop-opacity:0.58"/>
					</linearGradient>
					<path fill="url(#SVGID_1_)" d="M-51.159,61.926c0,0-4.563,9.899,1.457,14.206c5.908,3.812,93.665,60.445,93.665,60.445
						c2.915,1.881,7.696,1.899,10.625,0.039l97.949-62.146c6.667-4.98,1.479-13.267,1.479-13.267s1.976,2.928-1.687,5.236
						l-97.793,60.463c-2.949,1.824-7.753,1.787-10.674-0.083l-93.553-59.871l-1.862-1.668
						C-52.282,62.785-51.159,61.926-51.159,61.926z"/>
					<g>
						<linearGradient id="SVGID_2_" gradientUnits="userSpaceOnUse" x1="-17.4688" y1="119.458" x2="119.9348" y2="15.917">
							<stop  offset="0" style="stop-color:#F7BD16"/>
							<stop  offset="1" style="stop-color:#000000;stop-opacity:0.58"/>
						</linearGradient>
						<path fill="url(#SVGID_2_)" d="M54.538,126.9c-2.951,1.826-7.756,1.789-10.678-0.081l-93.546-59.87
							c-2.922-1.87-2.82-4.757,0.228-6.416L45.208,9.016c3.047-1.659,8.049-1.686,11.114-0.06l96.104,50.98
							c3.065,1.626,3.159,4.45,0.209,6.275L54.538,126.9z"/>
						<linearGradient id="SVGID_3_" gradientUnits="userSpaceOnUse" x1="-17.4688" y1="119.458" x2="119.9348" y2="15.917">
							<stop  offset="0" style="stop-color:#F7BD16"/>
							<stop  offset="1" style="stop-color:#000000;stop-opacity:0.58"/>
						</linearGradient>
						<path fill="url(#SVGID_3_)" d="M54.538,126.9c-2.951,1.826-7.756,1.789-10.678-0.081l-93.546-59.87
							c-2.922-1.87-2.82-4.757,0.228-6.416L45.208,9.016c3.047-1.659,8.049-1.686,11.114-0.06l96.104,50.98
							c3.065,1.626,3.159,4.45,0.209,6.275L54.538,126.9z"/>
					</g>
				</g>
			</g>
			<g id="roads_7_">
				<defs>
					<path id="SVGID_4_" d="M54.536,126.902c-2.949,1.824-7.753,1.788-10.674-0.082l-93.551-59.872
						c-2.921-1.87-2.819-4.756,0.227-6.414L45.21,9.014c3.046-1.658,8.045-1.685,11.108-0.059l96.111,50.982
						c3.064,1.626,3.157,4.448,0.207,6.273L54.536,126.902z"/>
				</defs>
				<defs>
					<path id="SVGID_5_" d="M54.536,126.902c-2.949,1.824-7.753,1.788-10.674-0.082l-93.551-59.872
						c-2.921-1.87-2.819-4.756,0.227-6.414L45.21,9.014c3.046-1.658,8.045-1.685,11.108-0.059l96.111,50.982
						c3.064,1.626,3.157,4.448,0.207,6.273L54.536,126.902z"/>
				</defs>
				<clipPath id="SVGID_6_">
					<use xlink:href="#SVGID_4_"  overflow="visible"/>
				</clipPath>
				<clipPath id="SVGID_7_" clip-path="url(#SVGID_6_)">
					<use xlink:href="#SVGID_5_"  overflow="visible"/>
				</clipPath>
				<polygon clip-path="url(#SVGID_7_)" fill="#4FBA6F" points="-15.659,92.253 42.205,57.588 -5.414,24.031 -59.531,61.979 				"/>
				<polygon clip-path="url(#SVGID_7_)" fill="#4FBA6F" points="109.281,96.337 160.897,64.365 104.302,20.035 50.185,57.983 				
					"/>
				
					<line clip-path="url(#SVGID_7_)" fill="none" stroke="#FFDE17" stroke-width="9.4626" stroke-miterlimit="10" x1="82.294" y1="120.292" x2="10.744" y2="73.582"/>
				<g clip-path="url(#SVGID_7_)">
					
						<line fill="none" stroke="#FBAC18" stroke-width="9.9827" stroke-miterlimit="10" x1="-18.915" y1="92.79" x2="99.791" y2="25.492"/>
				</g>
				<path clip-path="url(#SVGID_7_)" fill="none" stroke="#FFDE17" stroke-width="6.3084" stroke-miterlimit="2.6131" d="
					M86.232,19.687"/>
				<path clip-path="url(#SVGID_7_)" fill="none" stroke="#FFDE17" stroke-width="6.3084" stroke-miterlimit="2.6131" d="
					M59.554,83.151"/>
				
					<line clip-path="url(#SVGID_7_)" fill="none" stroke="#FFDE17" stroke-width="9.4626" stroke-miterlimit="10" x1="110.222" y1="97.312" x2="-5.215" y2="25.624"/>
				<g clip-path="url(#SVGID_7_)">
					<path fill="#CCCCCC" d="M58.948,114.375c2.312,1.482,2.313,3.91,0.006,5.396l-5.571,3.588c-2.308,1.486-6.081,1.48-8.385-0.013
						L2.507,95.805c-2.304-1.493-2.208-3.773,0.214-5.066l6.157-3.29c2.421-1.293,6.293-1.14,8.604,0.343L58.948,114.375z"/>
				</g>
			</g>
			<g>
				<defs>
					<path id="SVGID_8_" d="M-51.78,63.408c-0.645,2.457-2.909,8.743,2.079,12.724c5.908,3.812,93.665,60.445,93.665,60.445
						c2.915,1.881,7.696,1.899,10.625,0.039l97.949-62.146c6.667-4.98,1.479-13.267,1.479-13.267s1.976,2.928-1.687,5.236
						l-97.793,60.463c-2.949,1.824-7.753,1.787-10.674-0.083l-93.553-59.871C-49.689,66.949-51.988,65.677-51.78,63.408z"/>
				</defs>
				<clipPath id="SVGID_9_">
					<use xlink:href="#SVGID_8_"  overflow="visible"/>
				</clipPath>
			</g>
			<polygon display="none" fill="#DC9127" points="-19.5,87.023 -19.5,95.943 -9.5,102.363 -9.5,92.952 			"/>
			<polygon display="none" fill="#D2AB2A" points="101.5,97.553 101.5,106.578 110.5,101.044 110.5,92.041 			"/>
			<polygon display="none" fill="#D2AB2A" points="69.135,117.609 69.219,127.311 78.195,121.732 78.269,112.023 			"/>
		</g>
		<g>
			<g id="roads_6_">
				<defs>
					<path id="SVGID_10_" d="M54.536,126.902c-2.949,1.824-7.753,1.788-10.674-0.082l-93.551-59.872
						c-2.921-1.87-2.819-4.756,0.227-6.414L45.21,9.014c3.046-1.658,8.045-1.685,11.108-0.059l96.111,50.982
						c3.064,1.626,3.157,4.448,0.207,6.273L54.536,126.902z"/>
				</defs>
				<defs>
					<path id="SVGID_11_" d="M54.536,126.902c-2.949,1.824-7.753,1.788-10.674-0.082l-93.551-59.872
						c-2.921-1.87-2.819-4.756,0.227-6.414L45.21,9.014c3.046-1.658,8.045-1.685,11.108-0.059l96.111,50.982
						c3.064,1.626,3.157,4.448,0.207,6.273L54.536,126.902z"/>
				</defs>
				<clipPath id="SVGID_12_">
					<use xlink:href="#SVGID_10_"  overflow="visible"/>
				</clipPath>
				<clipPath id="SVGID_13_" clip-path="url(#SVGID_12_)">
					<use xlink:href="#SVGID_11_"  overflow="visible"/>
				</clipPath>
			</g>
			<g>
				<defs>
					<path id="SVGID_14_" d="M-51.78,63.408c-0.645,2.457-2.909,8.743,2.079,12.724c5.908,3.812,93.665,60.445,93.665,60.445
						c2.915,1.881,7.696,1.899,10.625,0.039l97.949-62.146c6.667-4.98,1.479-13.267,1.479-13.267s1.976,2.928-1.687,5.236
						l-97.793,60.463c-2.949,1.824-7.753,1.787-10.674-0.083l-93.553-59.871C-49.689,66.949-51.988,65.677-51.78,63.408z"/>
				</defs>
				<clipPath id="SVGID_15_">
					<use xlink:href="#SVGID_14_"  overflow="visible"/>
				</clipPath>
			</g>
		</g>
		<g>
			<g id="roads_5_">
				<defs>
					<path id="SVGID_16_" d="M54.536,126.902c-2.949,1.824-7.753,1.788-10.674-0.082l-93.551-59.872
						c-2.921-1.87-2.819-4.756,0.227-6.414L45.21,9.014c3.046-1.658,8.045-1.685,11.108-0.059l96.111,50.982
						c3.064,1.626,3.157,4.448,0.207,6.273L54.536,126.902z"/>
				</defs>
				<defs>
					<path id="SVGID_17_" d="M54.536,126.902c-2.949,1.824-7.753,1.788-10.674-0.082l-93.551-59.872
						c-2.921-1.87-2.819-4.756,0.227-6.414L45.21,9.014c3.046-1.658,8.045-1.685,11.108-0.059l96.111,50.982
						c3.064,1.626,3.157,4.448,0.207,6.273L54.536,126.902z"/>
				</defs>
				<clipPath id="SVGID_18_">
					<use xlink:href="#SVGID_16_"  overflow="visible"/>
				</clipPath>
				<clipPath id="SVGID_19_" clip-path="url(#SVGID_18_)">
					<use xlink:href="#SVGID_17_"  overflow="visible"/>
				</clipPath>
			</g>
			<g>
				<defs>
					<path id="SVGID_20_" d="M-51.78,63.408c-0.645,2.457-2.909,8.743,2.079,12.724c5.908,3.812,93.665,60.445,93.665,60.445
						c2.915,1.881,7.696,1.899,10.625,0.039l97.949-62.146c6.667-4.98,1.479-13.267,1.479-13.267s1.976,2.928-1.687,5.236
						l-97.793,60.463c-2.949,1.824-7.753,1.787-10.674-0.083l-93.553-59.871C-49.689,66.949-51.988,65.677-51.78,63.408z"/>
				</defs>
				<clipPath id="SVGID_21_">
					<use xlink:href="#SVGID_20_"  overflow="visible"/>
				</clipPath>
			</g>
		</g>
	</g>
</g>
<g id="pointer">
	<g>
		<g>
			<g id="pin_9_">
				<g>
					<g>
						<path fill="#753D3A" d="M51.782,6.655c-25.64,0-46.58,22.367-46.58,48.007c0,22.15,41.667,86.219,41.667,86.219
							c1.421,2.186,3.852,2.259,5.402,0.163c0,0,46.089-62.32,46.089-87.962C98.361,27.442,77.424,6.655,51.782,6.655z
							 M98.361,53.083c0-25.641-20.938-46.428-46.579-46.428 M98.361,53.083c0-25.641-20.938-46.428-46.579-46.428 M51.484,71.531
							c-10.246,0-18.553-8.306-18.553-18.553c0-10.248,8.307-18.554,18.553-18.554c10.248,0,18.555,8.306,18.555,18.554
							C70.039,63.225,61.732,71.531,51.484,71.531z"/>
					</g>
					<path fill="#753D3A" d="M-7.223,91.819"/>
				</g>
			</g>
		</g>
	</g>
	<g>
		<g>
			<defs>
				<rect id="SVGID_22_" x="1.5" y="5.756" width="94" height="136"/>
			</defs>
			<defs>
				<path id="SVGID_23_" d="M48.405,6.656c-25.641,0-46.427,20.788-46.427,46.428c0,25.643,43.526,86.159,43.526,86.159
					c1.596,2.219,4.205,2.219,5.801,0c0,0,43.527-60.517,43.527-86.159C94.832,27.444,74.047,6.656,48.405,6.656L48.405,6.656
					L48.405,6.656z M48.942,71.528c-10.737,0-19.441-8.705-19.441-19.441c0-10.739,8.704-19.443,19.441-19.443
					c10.738,0,19.443,8.705,19.443,19.443C68.385,62.823,59.68,71.528,48.942,71.528L48.942,71.528L48.942,71.528z M48.942,71.528"
					/>
			</defs>
			<defs>
				<rect id="SVGID_24_" x="1.5" y="-650.244" width="612" height="792"/>
			</defs>
			<clipPath id="SVGID_25_">
				<use xlink:href="#SVGID_22_"  overflow="visible"/>
			</clipPath>
			<clipPath id="SVGID_26_" clip-path="url(#SVGID_25_)">
				<use xlink:href="#SVGID_23_"  overflow="visible"/>
			</clipPath>
			<clipPath id="SVGID_27_" clip-path="url(#SVGID_26_)">
				<use xlink:href="#SVGID_24_"  overflow="visible"/>
			</clipPath>
			<path clip-path="url(#SVGID_27_)" fill-rule="evenodd" clip-rule="evenodd" fill="#ED6951" d="M-3.022,1.656H99.832v144.25
				H-3.022V1.656z M-3.022,1.656"/>
		</g>
		<g>
			<defs>
				<rect id="SVGID_28_" x="1.5" y="5.756" width="94" height="136"/>
			</defs>
			<defs>
				<path id="SVGID_29_" d="M47.923,71.551c13.979-0.699,17.631-10.126,17.631-10.126c1.167-3.296,1.396-2.135,2.791-9.986
					C69.102,47.178,67,11.256,44.159,6.707S43.721-15.06,29.618-20.81l85.987,25.452C111.551,74.966,46.204,71.551,47.923,71.551
					L47.923,71.551z M47.923,71.551"/>
			</defs>
			<defs>
				<path id="SVGID_30_" d="M48.405,6.656c-25.641,0-46.427,20.788-46.427,46.428c0,25.643,43.526,86.159,43.526,86.159
					c1.596,2.219,4.205,2.219,5.801,0c0,0,43.527-60.517,43.527-86.159C94.832,27.444,74.047,6.656,48.405,6.656L48.405,6.656
					L48.405,6.656z M48.942,71.528c-10.737,0-19.441-8.705-19.441-19.441c0-10.739,8.704-19.443,19.441-19.443
					c10.738,0,19.443,8.705,19.443,19.443C68.385,62.823,59.68,71.528,48.942,71.528L48.942,71.528L48.942,71.528z M48.942,71.528"
					/>
			</defs>
			<defs>
				<rect id="SVGID_31_" x="1.5" y="-650.244" width="612" height="792"/>
			</defs>
			<clipPath id="SVGID_32_">
				<use xlink:href="#SVGID_28_"  overflow="visible"/>
			</clipPath>
			<clipPath id="SVGID_33_" clip-path="url(#SVGID_32_)">
				<use xlink:href="#SVGID_29_"  overflow="visible"/>
			</clipPath>
			<clipPath id="SVGID_34_" clip-path="url(#SVGID_33_)">
				<use xlink:href="#SVGID_30_"  overflow="visible"/>
			</clipPath>
			<clipPath id="SVGID_35_" clip-path="url(#SVGID_34_)">
				<use xlink:href="#SVGID_31_"  overflow="visible"/>
			</clipPath>
			<path clip-path="url(#SVGID_35_)" fill-rule="evenodd" clip-rule="evenodd" fill="#DE5C46" d="M24.618-25.81h95.987V76.578
				H24.618V-25.81z M24.618-25.81"/>
		</g>
		<g display="none">
			<defs>
				<rect id="SVGID_36_" x="1.5" y="5.756" width="94" height="136"/>
			</defs>
			<defs>
				<path id="SVGID_37_" d="M47.864,71.515c0,0-16.43-0.583-16.871-20.083s-2,0-2,0s0.167,61.25,67.613,65.875
					c67.445,4.625,19-112.664,19-112.664C115.605,41.491,84.712,71.515,47.864,71.515L47.864,71.515z M47.864,71.515"/>
			</defs>
			<defs>
				<path id="SVGID_38_" d="M48.405,6.656c-25.641,0-46.427,20.788-46.427,46.428c0,25.643,43.526,86.159,43.526,86.159
					c1.596,2.219,4.205,2.219,5.801,0c0,0,43.527-60.517,43.527-86.159C94.832,27.444,74.047,6.656,48.405,6.656L48.405,6.656
					L48.405,6.656z M48.942,71.528c-10.737,0-19.441-8.705-19.441-19.441c0-10.739,8.704-19.443,19.441-19.443
					c10.738,0,19.443,8.705,19.443,19.443C68.385,62.823,59.68,71.528,48.942,71.528L48.942,71.528L48.942,71.528z M48.942,71.528"
					/>
			</defs>
			<defs>
				<rect id="SVGID_39_" x="1.5" y="-650.244" width="612" height="792"/>
			</defs>
			<clipPath id="SVGID_40_" display="inline">
				<use xlink:href="#SVGID_36_"  overflow="visible"/>
			</clipPath>
			<clipPath id="SVGID_41_" display="inline" clip-path="url(#SVGID_40_)">
				<use xlink:href="#SVGID_37_"  overflow="visible"/>
			</clipPath>
			<clipPath id="SVGID_42_" display="inline" clip-path="url(#SVGID_41_)">
				<use xlink:href="#SVGID_38_"  overflow="visible"/>
			</clipPath>
			<clipPath id="SVGID_43_" display="inline" clip-path="url(#SVGID_42_)">
				<use xlink:href="#SVGID_39_"  overflow="visible"/>
			</clipPath>
			<path display="inline" clip-path="url(#SVGID_43_)" fill-rule="evenodd" clip-rule="evenodd" fill="#E57565" d="M23.993-0.357
				h113.454v122.797H23.993V-0.357z M23.993-0.357"/>
		</g>
		<g>
			<defs>
				<rect id="SVGID_44_" x="1.5" y="5.756" width="94" height="136"/>
			</defs>
			<defs>
				<path id="SVGID_45_" d="M29.572,51.618c1.484,36.539,30.186,65.689,67.033,65.689c0.68,5.25-49.201,25.969-49.201,25.969
					c-10.479-12.594-15.775-23.42-22.704-34.635C-3.698,62.682,1.999,51.618,1.999,51.618c11.979-11.755,31.385-19.019,49.512-19.07
					c-0.001-0.001-20.43,1.181-21.569,18.095L29.572,51.618L29.572,51.618z M29.572,51.618"/>
			</defs>
			<defs>
				<path id="SVGID_46_" d="M48.405,6.656c-25.641,0-46.427,20.788-46.427,46.428c0,25.643,43.526,86.159,43.526,86.159
					c1.596,2.219,4.205,2.219,5.801,0c0,0,43.527-60.517,43.527-86.159C94.832,27.444,74.047,6.656,48.405,6.656L48.405,6.656
					L48.405,6.656z M48.942,71.528c-10.737,0-19.441-8.705-19.441-19.441c0-10.739,8.704-19.443,19.441-19.443
					c10.738,0,19.443,8.705,19.443,19.443C68.385,62.823,59.68,71.528,48.942,71.528L48.942,71.528L48.942,71.528z M48.942,71.528"
					/>
			</defs>
			<defs>
				<polyline id="SVGID_47_" points="1.5,141.756 1.5,-650.244 613.5,-650.244 613.5,141.756 				"/>
			</defs>
			<clipPath id="SVGID_48_">
				<use xlink:href="#SVGID_44_"  overflow="visible"/>
			</clipPath>
			<clipPath id="SVGID_49_" clip-path="url(#SVGID_48_)">
				<use xlink:href="#SVGID_45_"  overflow="visible"/>
			</clipPath>
			<clipPath id="SVGID_50_" clip-path="url(#SVGID_49_)">
				<use xlink:href="#SVGID_46_"  overflow="visible"/>
			</clipPath>
			<clipPath id="SVGID_51_" clip-path="url(#SVGID_50_)">
				<use xlink:href="#SVGID_47_"  overflow="visible"/>
			</clipPath>
			<path clip-path="url(#SVGID_51_)" fill-rule="evenodd" clip-rule="evenodd" fill="#DE5C46" d="M0.532,27.548h105.081v120.728
				H0.532V27.548z M0.532,27.548"/>
		</g>
	</g>
</g>
<g id="Layer_3" display="none">
</g>
<g id="Layer_4" display="none">
</g>
</svg>
