<?xml version="1.0" encoding="utf-8"?>
<!-- Generator: Adobe Illustrator 16.2.0, SVG Export Plug-In . SVG Version: 6.00 Build 0)  -->
<!DOCTYPE svg PUBLIC "-//W3C//DTD SVG 1.0//EN" "http://www.w3.org/TR/2001/REC-SVG-20010904/DTD/svg10.dtd">
<svg version="1.0" xmlns="http://www.w3.org/2000/svg" xmlns:xlink="http://www.w3.org/1999/xlink" x="0px" y="0px" width="215px"
	 height="132px" viewBox="0 0 215 132" enable-background="new 0 0 215 132" xml:space="preserve">
<g id="circle_1_">
	<g id="icon">
		<g>
			<g id="land_8_">
				<g>
					<path fill="#653614" d="M3.841,55.926c0,0-4.563,9.899,1.457,14.206c5.908,3.812,93.665,60.445,93.665,60.445
						c2.915,1.881,7.696,1.899,10.625,0.039l97.949-62.146c6.667-4.98,1.479-13.267,1.479-13.267s1.976,2.928-1.687,5.236
						l-97.793,60.463c-2.949,1.824-7.753,1.787-10.674-0.083L5.311,60.949l-1.862-1.668C2.718,56.785,3.841,55.926,3.841,55.926z"/>
					<g>
						<path fill="#EFEFEF" d="M109.538,120.9c-2.951,1.826-7.756,1.789-10.678-0.081L5.313,60.95
							c-2.922-1.87-2.82-4.757,0.228-6.416l94.667-51.518c3.047-1.659,8.049-1.686,11.114-0.06l96.104,50.98
							c3.065,1.626,3.159,4.45,0.209,6.275L109.538,120.9z"/>
					</g>
				</g>
				<g opacity="0.29">
					<linearGradient id="SVGID_1_" gradientUnits="userSpaceOnUse" x1="37.5312" y1="113.458" x2="174.9348" y2="9.917">
						<stop  offset="0" style="stop-color:#F7BD16"/>
						<stop  offset="1" style="stop-color:#000000;stop-opacity:0.58"/>
					</linearGradient>
					<path fill="url(#SVGID_1_)" d="M3.841,55.926c0,0-4.563,9.899,1.457,14.206c5.908,3.812,93.665,60.445,93.665,60.445
						c2.915,1.881,7.696,1.899,10.625,0.039l97.949-62.146c6.667-4.98,1.479-13.267,1.479-13.267s1.976,2.928-1.687,5.236
						l-97.793,60.463c-2.949,1.824-7.753,1.787-10.674-0.083L5.311,60.949l-1.862-1.668C2.718,56.785,3.841,55.926,3.841,55.926z"/>
					<g>
						<linearGradient id="SVGID_2_" gradientUnits="userSpaceOnUse" x1="37.5312" y1="113.458" x2="174.9348" y2="9.917">
							<stop  offset="0" style="stop-color:#F7BD16"/>
							<stop  offset="1" style="stop-color:#000000;stop-opacity:0.58"/>
						</linearGradient>
						<path fill="url(#SVGID_2_)" d="M109.538,120.9c-2.951,1.826-7.756,1.789-10.678-0.081L5.313,60.95
							c-2.922-1.87-2.82-4.757,0.228-6.416l94.667-51.518c3.047-1.659,8.049-1.686,11.114-0.06l96.104,50.98
							c3.065,1.626,3.159,4.45,0.209,6.275L109.538,120.9z"/>
						<linearGradient id="SVGID_3_" gradientUnits="userSpaceOnUse" x1="37.5312" y1="113.458" x2="174.9348" y2="9.917">
							<stop  offset="0" style="stop-color:#F7BD16"/>
							<stop  offset="1" style="stop-color:#000000;stop-opacity:0.58"/>
						</linearGradient>
						<path fill="url(#SVGID_3_)" d="M109.538,120.9c-2.951,1.826-7.756,1.789-10.678-0.081L5.313,60.95
							c-2.922-1.87-2.82-4.757,0.228-6.416l94.667-51.518c3.047-1.659,8.049-1.686,11.114-0.06l96.104,50.98
							c3.065,1.626,3.159,4.45,0.209,6.275L109.538,120.9z"/>
					</g>
				</g>
			</g>
			<g id="roads_7_">
				<defs>
					<path id="SVGID_4_" d="M109.536,120.902c-2.949,1.824-7.753,1.788-10.674-0.082L5.312,60.949
						c-2.921-1.87-2.819-4.756,0.227-6.414L100.21,3.014c3.046-1.658,8.045-1.685,11.108-0.059l96.111,50.982
						c3.064,1.626,3.157,4.448,0.207,6.273L109.536,120.902z"/>
				</defs>
				<defs>
					<path id="SVGID_5_" d="M109.536,120.902c-2.949,1.824-7.753,1.788-10.674-0.082L5.312,60.949
						c-2.921-1.87-2.819-4.756,0.227-6.414L100.21,3.014c3.046-1.658,8.045-1.685,11.108-0.059l96.111,50.982
						c3.064,1.626,3.157,4.448,0.207,6.273L109.536,120.902z"/>
				</defs>
				<clipPath id="SVGID_6_">
					<use xlink:href="#SVGID_4_"  overflow="visible"/>
				</clipPath>
				<clipPath id="SVGID_7_" clip-path="url(#SVGID_6_)">
					<use xlink:href="#SVGID_5_"  overflow="visible"/>
				</clipPath>
				<polygon clip-path="url(#SVGID_7_)" fill="#4FBA6F" points="39.341,86.253 97.205,51.588 49.586,18.031 -4.531,55.979 				"/>
				<polygon clip-path="url(#SVGID_7_)" fill="#4FBA6F" points="164.281,90.337 215.897,58.365 159.302,14.035 105.185,51.983 				
					"/>
				
					<line clip-path="url(#SVGID_7_)" fill="none" stroke="#FFDE17" stroke-width="9.4626" stroke-miterlimit="10" x1="137.294" y1="114.292" x2="65.744" y2="67.582"/>
				<g clip-path="url(#SVGID_7_)">
					
						<line fill="none" stroke="#FBAC18" stroke-width="9.9827" stroke-miterlimit="10" x1="36.085" y1="86.79" x2="154.791" y2="19.492"/>
				</g>
				<path clip-path="url(#SVGID_7_)" fill="none" stroke="#FFDE17" stroke-width="6.3084" stroke-miterlimit="2.6131" d="
					M141.232,13.687"/>
				<path clip-path="url(#SVGID_7_)" fill="none" stroke="#FFDE17" stroke-width="6.3084" stroke-miterlimit="2.6131" d="
					M114.554,77.151"/>
				
					<line clip-path="url(#SVGID_7_)" fill="none" stroke="#FFDE17" stroke-width="9.4626" stroke-miterlimit="10" x1="165.222" y1="91.312" x2="49.785" y2="19.624"/>
				<g clip-path="url(#SVGID_7_)">
					<path fill="#CCCCCC" d="M113.948,108.375c2.312,1.482,2.313,3.91,0.006,5.396l-5.571,3.588
						c-2.308,1.486-6.081,1.48-8.385-0.013L57.507,89.805c-2.304-1.493-2.208-3.773,0.214-5.066l6.157-3.29
						c2.421-1.293,6.293-1.14,8.604,0.343L113.948,108.375z"/>
				</g>
			</g>
			<g>
				<defs>
					<path id="SVGID_8_" d="M3.22,57.408c-0.645,2.457-2.909,8.743,2.079,12.724c5.908,3.812,93.665,60.445,93.665,60.445
						c2.915,1.881,7.696,1.899,10.625,0.039l97.949-62.146c6.667-4.98,1.479-13.267,1.479-13.267s1.976,2.928-1.687,5.236
						l-97.793,60.463c-2.949,1.824-7.753,1.787-10.674-0.083L5.311,60.949C5.311,60.949,3.012,59.677,3.22,57.408z"/>
				</defs>
				<clipPath id="SVGID_9_">
					<use xlink:href="#SVGID_8_"  overflow="visible"/>
				</clipPath>
			</g>
			<polygon display="none" fill="#DC9127" points="35.5,81.023 35.5,89.943 45.5,96.363 45.5,86.952 			"/>
			<polygon display="none" fill="#D2AB2A" points="156.5,91.553 156.5,100.578 165.5,95.044 165.5,86.041 			"/>
			<polygon display="none" fill="#D2AB2A" points="124.135,111.609 124.219,121.311 133.195,115.732 133.269,106.023 			"/>
		</g>
		<g>
			<g id="roads_6_">
				<defs>
					<path id="SVGID_10_" d="M109.536,120.902c-2.949,1.824-7.753,1.788-10.674-0.082L5.312,60.949
						c-2.921-1.87-2.819-4.756,0.227-6.414L100.21,3.014c3.046-1.658,8.045-1.685,11.108-0.059l96.111,50.982
						c3.064,1.626,3.157,4.448,0.207,6.273L109.536,120.902z"/>
				</defs>
				<defs>
					<path id="SVGID_11_" d="M109.536,120.902c-2.949,1.824-7.753,1.788-10.674-0.082L5.312,60.949
						c-2.921-1.87-2.819-4.756,0.227-6.414L100.21,3.014c3.046-1.658,8.045-1.685,11.108-0.059l96.111,50.982
						c3.064,1.626,3.157,4.448,0.207,6.273L109.536,120.902z"/>
				</defs>
				<clipPath id="SVGID_12_">
					<use xlink:href="#SVGID_10_"  overflow="visible"/>
				</clipPath>
				<clipPath id="SVGID_13_" clip-path="url(#SVGID_12_)">
					<use xlink:href="#SVGID_11_"  overflow="visible"/>
				</clipPath>
			</g>
			<g>
				<defs>
					<path id="SVGID_14_" d="M3.22,57.408c-0.645,2.457-2.909,8.743,2.079,12.724c5.908,3.812,93.665,60.445,93.665,60.445
						c2.915,1.881,7.696,1.899,10.625,0.039l97.949-62.146c6.667-4.98,1.479-13.267,1.479-13.267s1.976,2.928-1.687,5.236
						l-97.793,60.463c-2.949,1.824-7.753,1.787-10.674-0.083L5.311,60.949C5.311,60.949,3.012,59.677,3.22,57.408z"/>
				</defs>
				<clipPath id="SVGID_15_">
					<use xlink:href="#SVGID_14_"  overflow="visible"/>
				</clipPath>
			</g>
		</g>
		<g>
			<g id="roads_5_">
				<defs>
					<path id="SVGID_16_" d="M109.536,120.902c-2.949,1.824-7.753,1.788-10.674-0.082L5.312,60.949
						c-2.921-1.87-2.819-4.756,0.227-6.414L100.21,3.014c3.046-1.658,8.045-1.685,11.108-0.059l96.111,50.982
						c3.064,1.626,3.157,4.448,0.207,6.273L109.536,120.902z"/>
				</defs>
				<defs>
					<path id="SVGID_17_" d="M109.536,120.902c-2.949,1.824-7.753,1.788-10.674-0.082L5.312,60.949
						c-2.921-1.87-2.819-4.756,0.227-6.414L100.21,3.014c3.046-1.658,8.045-1.685,11.108-0.059l96.111,50.982
						c3.064,1.626,3.157,4.448,0.207,6.273L109.536,120.902z"/>
				</defs>
				<clipPath id="SVGID_18_">
					<use xlink:href="#SVGID_16_"  overflow="visible"/>
				</clipPath>
				<clipPath id="SVGID_19_" clip-path="url(#SVGID_18_)">
					<use xlink:href="#SVGID_17_"  overflow="visible"/>
				</clipPath>
			</g>
			<g>
				<defs>
					<path id="SVGID_20_" d="M3.22,57.408c-0.645,2.457-2.909,8.743,2.079,12.724c5.908,3.812,93.665,60.445,93.665,60.445
						c2.915,1.881,7.696,1.899,10.625,0.039l97.949-62.146c6.667-4.98,1.479-13.267,1.479-13.267s1.976,2.928-1.687,5.236
						l-97.793,60.463c-2.949,1.824-7.753,1.787-10.674-0.083L5.311,60.949C5.311,60.949,3.012,59.677,3.22,57.408z"/>
				</defs>
				<clipPath id="SVGID_21_">
					<use xlink:href="#SVGID_20_"  overflow="visible"/>
				</clipPath>
			</g>
		</g>
	</g>
</g>
<g id="pointer" display="none">
	<g display="inline">
		<g>
			<g id="pin_9_">
				<g>
					<g>
						<path fill="#753D3A" d="M55.782-71.345c-25.64,0-46.58,22.367-46.58,48.007c0,22.15,41.667,86.22,41.667,86.22
							c1.421,2.185,3.852,2.258,5.402,0.163c0,0,46.09-62.32,46.09-87.962C102.362-50.558,81.424-71.345,55.782-71.345z
							 M102.362-24.917c0-25.641-20.938-46.428-46.58-46.428 M102.362-24.917c0-25.641-20.938-46.428-46.58-46.428 M55.484-6.469
							c-10.246,0-18.553-8.306-18.553-18.553c0-10.248,8.307-18.554,18.553-18.554c10.248,0,18.554,8.306,18.554,18.554
							C74.039-14.775,65.732-6.469,55.484-6.469z"/>
					</g>
					<path fill="#753D3A" d="M-3.223,13.819"/>
				</g>
			</g>
		</g>
	</g>
	<g display="inline">
		<g>
			<defs>
				<rect id="SVGID_22_" x="5.5" y="-72.244" width="94" height="136"/>
			</defs>
			<defs>
				<path id="SVGID_23_" d="M52.405-71.344c-25.641,0-46.427,20.788-46.427,46.428c0,25.643,43.526,86.159,43.526,86.159
					c1.596,2.219,4.205,2.219,5.801,0c0,0,43.527-60.517,43.527-86.159C98.832-50.556,78.047-71.344,52.405-71.344L52.405-71.344
					L52.405-71.344z M52.942-6.472c-10.737,0-19.441-8.705-19.441-19.441c0-10.739,8.704-19.443,19.441-19.443
					c10.738,0,19.443,8.705,19.443,19.443C72.385-15.177,63.68-6.472,52.942-6.472L52.942-6.472L52.942-6.472z M52.942-6.472"/>
			</defs>
			<defs>
				<rect id="SVGID_24_" x="5.5" y="-728.244" width="612" height="792"/>
			</defs>
			<clipPath id="SVGID_25_">
				<use xlink:href="#SVGID_22_"  overflow="visible"/>
			</clipPath>
			<clipPath id="SVGID_26_" clip-path="url(#SVGID_25_)">
				<use xlink:href="#SVGID_23_"  overflow="visible"/>
			</clipPath>
			<clipPath id="SVGID_27_" clip-path="url(#SVGID_26_)">
				<use xlink:href="#SVGID_24_"  overflow="visible"/>
			</clipPath>
			<path clip-path="url(#SVGID_27_)" fill-rule="evenodd" clip-rule="evenodd" fill="#ED6951" d="M0.978-76.344h102.854v144.25
				H0.978V-76.344z M0.978-76.344"/>
		</g>
		<g>
			<defs>
				<rect id="SVGID_28_" x="5.5" y="-72.244" width="94" height="136"/>
			</defs>
			<defs>
				<path id="SVGID_29_" d="M51.923-6.449c13.979-0.699,17.631-10.126,17.631-10.126c1.167-3.296,1.396-2.135,2.791-9.986
					C73.102-30.822,71-66.744,48.159-71.293S47.721-93.06,33.618-98.81l85.987,25.452C115.551-3.034,50.204-6.449,51.923-6.449
					L51.923-6.449z M51.923-6.449"/>
			</defs>
			<defs>
				<path id="SVGID_30_" d="M52.405-71.344c-25.641,0-46.427,20.788-46.427,46.428c0,25.643,43.526,86.159,43.526,86.159
					c1.596,2.219,4.205,2.219,5.801,0c0,0,43.527-60.517,43.527-86.159C98.832-50.556,78.047-71.344,52.405-71.344L52.405-71.344
					L52.405-71.344z M52.942-6.472c-10.737,0-19.441-8.705-19.441-19.441c0-10.739,8.704-19.443,19.441-19.443
					c10.738,0,19.443,8.705,19.443,19.443C72.385-15.177,63.68-6.472,52.942-6.472L52.942-6.472L52.942-6.472z M52.942-6.472"/>
			</defs>
			<defs>
				<rect id="SVGID_31_" x="5.5" y="-728.244" width="612" height="792"/>
			</defs>
			<clipPath id="SVGID_32_">
				<use xlink:href="#SVGID_28_"  overflow="visible"/>
			</clipPath>
			<clipPath id="SVGID_33_" clip-path="url(#SVGID_32_)">
				<use xlink:href="#SVGID_29_"  overflow="visible"/>
			</clipPath>
			<clipPath id="SVGID_34_" clip-path="url(#SVGID_33_)">
				<use xlink:href="#SVGID_30_"  overflow="visible"/>
			</clipPath>
			<clipPath id="SVGID_35_" clip-path="url(#SVGID_34_)">
				<use xlink:href="#SVGID_31_"  overflow="visible"/>
			</clipPath>
			<path clip-path="url(#SVGID_35_)" fill-rule="evenodd" clip-rule="evenodd" fill="#DE5C46" d="M28.618-103.81h95.987V-1.422
				H28.618V-103.81z M28.618-103.81"/>
		</g>
		<g display="none">
			<defs>
				<rect id="SVGID_36_" x="5.5" y="-72.244" width="94" height="136"/>
			</defs>
			<defs>
				<path id="SVGID_37_" d="M51.864-6.485c0,0-16.43-0.583-16.871-20.083s-2,0-2,0s0.167,61.25,67.613,65.875
					c67.445,4.625,19-112.664,19-112.664C119.605-36.509,88.712-6.485,51.864-6.485L51.864-6.485z M51.864-6.485"/>
			</defs>
			<defs>
				<path id="SVGID_38_" d="M52.405-71.344c-25.641,0-46.427,20.788-46.427,46.428c0,25.643,43.526,86.159,43.526,86.159
					c1.596,2.219,4.205,2.219,5.801,0c0,0,43.527-60.517,43.527-86.159C98.832-50.556,78.047-71.344,52.405-71.344L52.405-71.344
					L52.405-71.344z M52.942-6.472c-10.737,0-19.441-8.705-19.441-19.441c0-10.739,8.704-19.443,19.441-19.443
					c10.738,0,19.443,8.705,19.443,19.443C72.385-15.177,63.68-6.472,52.942-6.472L52.942-6.472L52.942-6.472z M52.942-6.472"/>
			</defs>
			<defs>
				<rect id="SVGID_39_" x="5.5" y="-728.244" width="612" height="792"/>
			</defs>
			<clipPath id="SVGID_40_" display="inline">
				<use xlink:href="#SVGID_36_"  overflow="visible"/>
			</clipPath>
			<clipPath id="SVGID_41_" display="inline" clip-path="url(#SVGID_40_)">
				<use xlink:href="#SVGID_37_"  overflow="visible"/>
			</clipPath>
			<clipPath id="SVGID_42_" display="inline" clip-path="url(#SVGID_41_)">
				<use xlink:href="#SVGID_38_"  overflow="visible"/>
			</clipPath>
			<clipPath id="SVGID_43_" display="inline" clip-path="url(#SVGID_42_)">
				<use xlink:href="#SVGID_39_"  overflow="visible"/>
			</clipPath>
			<path display="inline" clip-path="url(#SVGID_43_)" fill-rule="evenodd" clip-rule="evenodd" fill="#E57565" d="M27.993-78.357
				h113.454V44.44H27.993V-78.357z M27.993-78.357"/>
		</g>
		<g>
			<defs>
				<rect id="SVGID_44_" x="5.5" y="-72.244" width="94" height="136"/>
			</defs>
			<defs>
				<path id="SVGID_45_" d="M33.572-26.382c1.484,36.539,30.186,65.689,67.033,65.689c0.68,5.25-49.201,25.969-49.201,25.969
					C40.926,52.682,35.63,41.855,28.701,30.641C0.302-15.318,5.999-26.382,5.999-26.382c11.979-11.755,31.385-19.019,49.512-19.07
					c-0.001-0.001-20.43,1.181-21.569,18.095L33.572-26.382L33.572-26.382z M33.572-26.382"/>
			</defs>
			<defs>
				<path id="SVGID_46_" d="M52.405-71.344c-25.641,0-46.427,20.788-46.427,46.428c0,25.643,43.526,86.159,43.526,86.159
					c1.596,2.219,4.205,2.219,5.801,0c0,0,43.527-60.517,43.527-86.159C98.832-50.556,78.047-71.344,52.405-71.344L52.405-71.344
					L52.405-71.344z M52.942-6.472c-10.737,0-19.441-8.705-19.441-19.441c0-10.739,8.704-19.443,19.441-19.443
					c10.738,0,19.443,8.705,19.443,19.443C72.385-15.177,63.68-6.472,52.942-6.472L52.942-6.472L52.942-6.472z M52.942-6.472"/>
			</defs>
			<defs>
				<polyline id="SVGID_47_" points="5.5,63.756 5.5,-728.244 617.5,-728.244 617.5,63.756 				"/>
			</defs>
			<clipPath id="SVGID_48_">
				<use xlink:href="#SVGID_44_"  overflow="visible"/>
			</clipPath>
			<clipPath id="SVGID_49_" clip-path="url(#SVGID_48_)">
				<use xlink:href="#SVGID_45_"  overflow="visible"/>
			</clipPath>
			<clipPath id="SVGID_50_" clip-path="url(#SVGID_49_)">
				<use xlink:href="#SVGID_46_"  overflow="visible"/>
			</clipPath>
			<clipPath id="SVGID_51_" clip-path="url(#SVGID_50_)">
				<use xlink:href="#SVGID_47_"  overflow="visible"/>
			</clipPath>
			<path clip-path="url(#SVGID_51_)" fill-rule="evenodd" clip-rule="evenodd" fill="#DE5C46" d="M4.532-50.452h105.081V70.275
				H4.532V-50.452z M4.532-50.452"/>
		</g>
	</g>
</g>
<g id="Layer_3" display="none">
</g>
<g id="Layer_4" display="none">
</g>
</svg>
