<?xml version="1.0" encoding="utf-8"?>
<!-- Generator: Adobe Illustrator 16.2.0, SVG Export Plug-In . SVG Version: 6.00 Build 0)  -->
<!DOCTYPE svg PUBLIC "-//W3C//DTD SVG 1.0//EN" "http://www.w3.org/TR/2001/REC-SVG-20010904/DTD/svg10.dtd">
<svg version="1.0" id="Layer_1" xmlns="http://www.w3.org/2000/svg" xmlns:xlink="http://www.w3.org/1999/xlink" x="0px" y="0px"
	 width="96px" height="96px" viewBox="0 0 96 96" enable-background="new 0 0 96 96" xml:space="preserve">
<path fill="#BEBEBE" d="M35.563,15.428c-0.592-0.592-1.55-0.592-2.142,0L25,23.856l-8.421-8.428c-0.592-0.592-1.55-0.592-2.142,0
	c-0.592,0.592-0.592,1.551,0,2.144L22.858,26l-8.422,8.429c-0.592,0.592-0.592,1.551,0,2.144c0.296,0.296,0.684,0.444,1.071,0.444
	c0.388,0,0.775-0.148,1.071-0.444L25,28.144l8.422,8.429c0.296,0.296,0.683,0.444,1.071,0.444c0.387,0,0.775-0.148,1.071-0.444
	c0.592-0.592,0.592-1.551,0-2.144L27.142,26l8.422-8.428C36.155,16.979,36.155,16.021,35.563,15.428z"/>
<path fill="#DF5C45" d="M35.563,58.461c-0.592-0.592-1.55-0.592-2.142,0L25,66.889l-8.421-8.428c-0.592-0.592-1.55-0.592-2.142,0
	c-0.592,0.592-0.592,1.551,0,2.144l8.421,8.428l-8.422,8.429c-0.592,0.592-0.592,1.551,0,2.144c0.296,0.296,0.684,0.444,1.071,0.444
	c0.388,0,0.775-0.148,1.071-0.444L25,71.176l8.422,8.429c0.296,0.296,0.683,0.444,1.071,0.444c0.387,0,0.775-0.148,1.071-0.444
	c0.592-0.592,0.592-1.551,0-2.144l-8.422-8.429l8.422-8.428C36.155,60.012,36.155,59.053,35.563,58.461z"/>
<path fill="#BABABA" d="M81.366,14.348c-0.719-0.566-1.743-0.424-2.29,0.317L65.088,33.615l-5.208-6.372
	c-0.582-0.712-1.613-0.802-2.301-0.199c-0.689,0.603-0.775,1.668-0.193,2.38l6.521,7.977C64.217,37.781,64.673,38,65.153,38
	c0.014,0,0.027,0,0.041-0.001c0.495-0.012,0.957-0.256,1.257-0.663l15.222-20.619C82.219,15.975,82.083,14.915,81.366,14.348z"/>
<path fill="#4AB96E" d="M81.366,57.38c-0.719-0.566-1.743-0.424-2.29,0.317L65.088,76.647l-5.208-6.372
	c-0.582-0.712-1.613-0.802-2.301-0.199c-0.689,0.603-0.775,1.668-0.193,2.38l6.521,7.977c0.311,0.38,0.767,0.599,1.247,0.599
	c0.014,0,0.027,0,0.041-0.001c0.495-0.012,0.957-0.256,1.257-0.663l15.222-20.619C82.219,59.007,82.083,57.947,81.366,57.38z"/>
</svg>
